<svg width="1789" height="795" viewBox="0 0 1789 795" fill="none" xmlns="http://www.w3.org/2000/svg">
<path d="M1150.69 736.764C1150.69 739.562 1148.52 741.835 1145.84 741.835C1143.17 741.835 1141 739.562 1141 736.764C1141 733.965 1143.17 731.692 1145.84 731.692C1148.52 731.692 1150.69 733.959 1150.69 736.764Z" stroke="#4D2C5E" stroke-opacity="0.06" stroke-width="2" stroke-miterlimit="10" stroke-linecap="round" stroke-linejoin="round"/>
<path d="M1197.68 780.752C1200.35 780.752 1202.52 778.481 1202.52 775.68C1202.52 772.879 1200.35 770.608 1197.68 770.608C1195 770.608 1192.84 772.879 1192.84 775.68C1192.84 778.481 1195 780.752 1197.68 780.752Z" stroke="#4D2C5E" stroke-opacity="0.06" stroke-width="2" stroke-miterlimit="10" stroke-linecap="round" stroke-linejoin="round"/>
<path d="M1179.44 765.253C1185.15 765.253 1189.77 760.41 1189.77 754.436C1189.77 748.462 1185.15 743.619 1179.44 743.619C1173.74 743.619 1169.11 748.462 1169.11 754.436C1169.11 760.41 1173.74 765.253 1179.44 765.253Z" stroke="#4D2C5E" stroke-opacity="0.06" stroke-width="2" stroke-miterlimit="10" stroke-linecap="round" stroke-linejoin="round"/>
<path d="M1197.44 754.435L1194 760.741L1192.17 767.762L1185.47 769.669L1179.44 773.282L1173.42 769.669L1166.71 767.762L1164.89 760.741L1161.44 754.435L1164.89 748.124L1166.71 741.103L1173.42 739.196L1179.44 735.583L1185.47 739.196L1192.17 741.103L1194 748.124L1197.44 754.435Z" stroke="#4D2C5E" stroke-opacity="0.06" stroke-width="2" stroke-miterlimit="10" stroke-linecap="round" stroke-linejoin="round"/>
<path d="M1192.84 775.68C1192.84 772.881 1195.01 770.608 1197.68 770.608C1199.12 770.608 1200.42 771.275 1201.31 772.326C1204.99 767.39 1207.2 761.184 1207.2 754.43C1207.2 738.375 1194.77 725.362 1179.44 725.362C1164.11 725.362 1151.68 738.375 1151.68 754.43C1151.68 770.484 1164.11 783.497 1179.44 783.497C1184.83 783.497 1189.85 781.885 1194.11 779.104C1193.33 778.201 1192.84 777.002 1192.84 775.68Z" stroke="#4D2C5E" stroke-opacity="0.06" stroke-width="2" stroke-miterlimit="10" stroke-linecap="round" stroke-linejoin="round"/>
<path d="M1179.44 715.1C1166.49 715.1 1155.07 721.967 1148.32 732.412C1149.73 733.298 1150.69 734.915 1150.69 736.769C1150.69 739.568 1148.52 741.841 1145.84 741.841C1145.18 741.841 1144.56 741.7 1143.99 741.452C1142.63 745.52 1141.89 749.883 1141.89 754.436C1141.89 776.158 1158.71 793.771 1179.45 793.771C1200.19 793.771 1217.01 776.158 1217.01 754.436C1217.01 732.713 1200.19 715.1 1179.44 715.1Z" stroke="#4D2C5E" stroke-opacity="0.06" stroke-width="2" stroke-miterlimit="10" stroke-linecap="round" stroke-linejoin="round"/>
<path d="M1291.84 83.913L1268.54 75.6244C1266.07 74.7508 1264.76 71.9483 1265.59 69.3695C1266.43 66.7907 1269.1 65.4139 1271.56 66.2875L1294.86 74.5761C1297.33 75.4497 1298.64 78.2521 1297.81 80.824C1296.97 83.4098 1294.3 84.7936 1291.84 83.913Z" stroke="#4D2C5E" stroke-opacity="0.06" stroke-width="3" stroke-miterlimit="10"/>
<path d="M1288.78 93.3616L1265.47 85.073C1263.01 84.1994 1261.69 81.3969 1262.53 78.8251C1263.36 76.2463 1266.04 74.8695 1268.5 75.743L1291.81 84.0247C1294.27 84.8983 1295.59 87.7008 1294.75 90.2796C1293.91 92.8584 1291.24 94.2352 1288.78 93.3616Z" stroke="#4D2C5E" stroke-opacity="0.06" stroke-width="3" stroke-miterlimit="10"/>
<path d="M1268.06 40.7996C1268.09 40.8835 1268.11 40.9604 1268.13 41.0443C1268.66 42.7844 1271.73 53.8126 1270.44 66.0498L1295.45 74.6879C1301.37 64.0581 1310.11 57.1182 1311.52 56.042C1311.58 55.9931 1311.65 55.9442 1311.71 55.8952C1312.39 55.3851 1313.05 54.8399 1313.69 54.2599C1317.46 50.8564 1320.42 46.3766 1322.09 41.0792C1327.01 25.4804 1318.92 8.65859 1304.02 3.50791C1289.12 -1.64276 1273.06 6.82755 1268.14 22.4263C1266.47 27.7308 1266.3 33.175 1267.39 38.2558C1267.58 39.1084 1267.8 39.961 1268.06 40.7996Z" stroke="#4D2C5E" stroke-opacity="0.06" stroke-width="3" stroke-miterlimit="10"/>
<path d="M1266.75 85.6462C1266.47 90.8179 1269.51 95.7449 1274.43 97.4501C1279.29 99.1274 1284.47 97.1356 1287.22 92.9215L1266.75 85.6462Z" stroke="#4D2C5E" stroke-opacity="0.06" stroke-width="3" stroke-miterlimit="10"/>
<path d="M1278.27 68.6148L1285.7 45.0418C1286.44 42.7216 1285.23 40.2196 1283.01 39.4509C1280.8 38.6821 1278.41 39.9471 1277.67 42.2673C1276.94 44.5876 1278.15 47.0895 1280.36 47.8583L1289.28 50.9403" stroke="#4D2C5E" stroke-opacity="0.06" stroke-width="3" stroke-miterlimit="10"/>
<path d="M1288.07 72.0043L1295.5 48.4314C1296.23 46.1112 1298.62 44.8532 1300.84 45.615C1303.05 46.3837 1304.25 48.8857 1303.53 51.2059C1302.79 53.5262 1300.4 54.7842 1298.19 54.0224L1289.27 50.9403" stroke="#4D2C5E" stroke-opacity="0.06" stroke-width="3" stroke-miterlimit="10"/>
<path d="M1327.37 49.2002L1334.9 51.807" stroke="#4D2C5E" stroke-opacity="0.06" stroke-width="3" stroke-miterlimit="10" stroke-linecap="round"/>
<path d="M1330.82 39.2692L1338.66 38.0322" stroke="#4D2C5E" stroke-opacity="0.06" stroke-width="3" stroke-miterlimit="10" stroke-linecap="round"/>
<path d="M1322.1 57.7195L1327.69 63.604" stroke="#4D2C5E" stroke-opacity="0.06" stroke-width="3" stroke-miterlimit="10" stroke-linecap="round"/>
<path d="M1257.44 25.0331L1249.91 22.4333" stroke="#4D2C5E" stroke-opacity="0.06" stroke-width="3" stroke-miterlimit="10" stroke-linecap="round"/>
<path d="M1260.32 14.8996L1254.73 9.01514" stroke="#4D2C5E" stroke-opacity="0.06" stroke-width="3" stroke-miterlimit="10" stroke-linecap="round"/>
<path d="M1256.84 35.1599L1249 36.3969" stroke="#4D2C5E" stroke-opacity="0.06" stroke-width="3" stroke-miterlimit="10" stroke-linecap="round"/>
<path d="M176.841 486.913L153.535 478.624C151.072 477.751 149.758 474.948 150.592 472.369C151.426 469.791 154.102 468.414 156.558 469.287L179.864 477.576C182.327 478.45 183.642 481.252 182.808 483.824C181.973 486.41 179.304 487.794 176.841 486.913Z" stroke="#4D2C5E" stroke-opacity="0.06" stroke-width="3" stroke-miterlimit="10"/>
<path d="M173.778 496.362L150.472 488.073C148.009 487.199 146.694 484.397 147.528 481.825C148.363 479.246 151.039 477.869 153.502 478.743L176.808 487.025C179.27 487.898 180.585 490.701 179.751 493.28C178.91 495.858 176.24 497.235 173.778 496.362Z" stroke="#4D2C5E" stroke-opacity="0.06" stroke-width="3" stroke-miterlimit="10"/>
<path d="M153.061 443.8C153.088 443.883 153.108 443.96 153.135 444.044C153.655 445.784 156.725 456.813 155.444 469.05L180.445 477.688C186.372 467.058 195.108 460.118 196.516 459.042C196.583 458.993 196.65 458.944 196.71 458.895C197.391 458.385 198.051 457.84 198.692 457.26C202.456 453.856 205.42 449.377 207.088 444.079C212.007 428.48 203.918 411.659 189.021 406.508C174.125 401.357 158.06 409.828 153.141 425.426C151.466 430.731 151.299 436.175 152.394 441.256C152.581 442.108 152.801 442.961 153.061 443.8Z" stroke="#4D2C5E" stroke-opacity="0.06" stroke-width="3" stroke-miterlimit="10"/>
<path d="M151.746 488.646C151.466 493.818 154.509 498.745 159.435 500.45C164.294 502.127 169.466 500.136 172.216 495.921L151.746 488.646Z" stroke="#4D2C5E" stroke-opacity="0.06" stroke-width="3" stroke-miterlimit="10"/>
<path d="M163.273 471.615L170.701 448.042C171.435 445.722 170.227 443.22 168.011 442.451C165.795 441.682 163.406 442.947 162.672 445.267C161.938 447.588 163.146 450.09 165.362 450.858L174.278 453.94" stroke="#4D2C5E" stroke-opacity="0.06" stroke-width="3" stroke-miterlimit="10"/>
<path d="M173.07 475.004L180.498 451.431C181.233 449.111 183.622 447.853 185.838 448.615C188.053 449.384 189.255 451.886 188.527 454.206C187.793 456.526 185.404 457.784 183.188 457.022L174.271 453.94" stroke="#4D2C5E" stroke-opacity="0.06" stroke-width="3" stroke-miterlimit="10"/>
<path d="M212.367 452.2L219.896 454.807" stroke="#4D2C5E" stroke-opacity="0.06" stroke-width="3" stroke-miterlimit="10" stroke-linecap="round"/>
<path d="M215.818 442.269L223.66 441.032" stroke="#4D2C5E" stroke-opacity="0.06" stroke-width="3" stroke-miterlimit="10" stroke-linecap="round"/>
<path d="M207.102 460.719L212.694 466.604" stroke="#4D2C5E" stroke-opacity="0.06" stroke-width="3" stroke-miterlimit="10" stroke-linecap="round"/>
<path d="M142.443 428.033L134.914 425.433" stroke="#4D2C5E" stroke-opacity="0.06" stroke-width="3" stroke-miterlimit="10" stroke-linecap="round"/>
<path d="M145.319 417.9L139.726 412.015" stroke="#4D2C5E" stroke-opacity="0.06" stroke-width="3" stroke-miterlimit="10" stroke-linecap="round"/>
<path d="M141.835 438.16L134 439.397" stroke="#4D2C5E" stroke-opacity="0.06" stroke-width="3" stroke-miterlimit="10" stroke-linecap="round"/>
<path d="M1432.84 700.913L1409.54 692.624C1407.07 691.751 1405.76 688.948 1406.59 686.369C1407.43 683.791 1410.1 682.414 1412.56 683.287L1435.86 691.576C1438.33 692.45 1439.64 695.252 1438.81 697.824C1437.97 700.41 1435.3 701.794 1432.84 700.913Z" stroke="#4D2C5E" stroke-opacity="0.06" stroke-width="3" stroke-miterlimit="10"/>
<path d="M1429.78 710.362L1406.47 702.073C1404.01 701.199 1402.69 698.397 1403.53 695.825C1404.36 693.246 1407.04 691.869 1409.5 692.743L1432.81 701.025C1435.27 701.898 1436.59 704.701 1435.75 707.28C1434.91 709.858 1432.24 711.235 1429.78 710.362Z" stroke="#4D2C5E" stroke-opacity="0.06" stroke-width="3" stroke-miterlimit="10"/>
<path d="M1409.06 657.8C1409.09 657.883 1409.11 657.96 1409.13 658.044C1409.66 659.784 1412.73 670.813 1411.44 683.05L1436.45 691.688C1442.37 681.058 1451.11 674.118 1452.52 673.042C1452.58 672.993 1452.65 672.944 1452.71 672.895C1453.39 672.385 1454.05 671.84 1454.69 671.26C1458.46 667.856 1461.42 663.377 1463.09 658.079C1468.01 642.48 1459.92 625.659 1445.02 620.508C1430.12 615.357 1414.06 623.828 1409.14 639.426C1407.47 644.731 1407.3 650.175 1408.39 655.256C1408.58 656.108 1408.8 656.961 1409.06 657.8Z" stroke="#4D2C5E" stroke-opacity="0.06" stroke-width="3" stroke-miterlimit="10"/>
<path d="M1407.75 702.646C1407.47 707.818 1410.51 712.745 1415.43 714.45C1420.29 716.127 1425.47 714.136 1428.22 709.921L1407.75 702.646Z" stroke="#4D2C5E" stroke-opacity="0.06" stroke-width="3" stroke-miterlimit="10"/>
<path d="M1419.27 685.615L1426.7 662.042C1427.44 659.722 1426.23 657.22 1424.01 656.451C1421.8 655.682 1419.41 656.947 1418.67 659.267C1417.94 661.588 1419.15 664.09 1421.36 664.858L1430.28 667.94" stroke="#4D2C5E" stroke-opacity="0.06" stroke-width="3" stroke-miterlimit="10"/>
<path d="M1429.07 689.004L1436.5 665.431C1437.23 663.111 1439.62 661.853 1441.84 662.615C1444.05 663.384 1445.25 665.886 1444.53 668.206C1443.79 670.526 1441.4 671.784 1439.19 671.022L1430.27 667.94" stroke="#4D2C5E" stroke-opacity="0.06" stroke-width="3" stroke-miterlimit="10"/>
<path d="M1468.37 666.2L1475.9 668.807" stroke="#4D2C5E" stroke-opacity="0.06" stroke-width="3" stroke-miterlimit="10" stroke-linecap="round"/>
<path d="M1471.82 656.269L1479.66 655.032" stroke="#4D2C5E" stroke-opacity="0.06" stroke-width="3" stroke-miterlimit="10" stroke-linecap="round"/>
<path d="M1463.1 674.719L1468.69 680.604" stroke="#4D2C5E" stroke-opacity="0.06" stroke-width="3" stroke-miterlimit="10" stroke-linecap="round"/>
<path d="M1398.44 642.033L1390.91 639.433" stroke="#4D2C5E" stroke-opacity="0.06" stroke-width="3" stroke-miterlimit="10" stroke-linecap="round"/>
<path d="M1401.32 631.9L1395.73 626.015" stroke="#4D2C5E" stroke-opacity="0.06" stroke-width="3" stroke-miterlimit="10" stroke-linecap="round"/>
<path d="M1397.84 652.16L1390 653.397" stroke="#4D2C5E" stroke-opacity="0.06" stroke-width="3" stroke-miterlimit="10" stroke-linecap="round"/>
<path d="M1055.99 165.959L986.788 144.312C981.755 142.739 978.898 137.192 980.4 131.922L994.221 83.4551C995.723 78.1845 1001.02 75.193 1006.05 76.7656L1075.26 98.4128C1080.29 99.9853 1083.15 105.532 1081.65 110.803L1067.83 159.269C1066.32 164.534 1061.02 167.532 1055.99 165.959Z" stroke="#4D2C5E" stroke-opacity="0.06" stroke-width="4" stroke-miterlimit="10" stroke-linecap="round"/>
<path d="M982.031 126.19L1069.46 153.538" stroke="#4D2C5E" stroke-opacity="0.06" stroke-width="4" stroke-miterlimit="10" stroke-linecap="round"/>
<path d="M1025.96 147.807C1025.58 149.122 1024.26 149.871 1023 149.478C1021.75 149.085 1021.03 147.696 1021.41 146.382C1021.78 145.067 1023.11 144.318 1024.36 144.711C1025.62 145.104 1026.33 146.492 1025.96 147.807Z" fill="#4D2C5E" fill-opacity="0.5"/>
<path d="M1031.2 158.21L1011.6 152.08L1008.96 161.339L1028.56 167.469L1031.2 158.21Z" stroke="#4D2C5E" stroke-opacity="0.06" stroke-width="4" stroke-miterlimit="10" stroke-linecap="round"/>
<path d="M1001.69 159.595L1035.53 170.179" stroke="#4D2C5E" stroke-opacity="0.06" stroke-width="4" stroke-miterlimit="10" stroke-linecap="round"/>
<path d="M1728.72 89.5779C1750.41 89.5779 1768 80.8488 1768 70.081C1768 59.3133 1750.41 50.5842 1728.72 50.5842C1707.03 50.5842 1689.44 59.3133 1689.44 70.081C1689.44 80.8488 1707.03 89.5779 1728.72 89.5779Z" stroke="#4D2C5E" stroke-opacity="0.06" stroke-width="3" stroke-miterlimit="10" stroke-linecap="round" stroke-linejoin="round"/>
<path d="M1744.6 80.2439C1755.89 60.8419 1757.91 40.5744 1749.13 34.9751C1740.35 29.3759 1724.08 40.5652 1712.8 59.9672C1701.52 79.3692 1699.49 99.6367 1708.28 105.236C1717.06 110.835 1733.32 99.6459 1744.6 80.2439Z" stroke="#4D2C5E" stroke-opacity="0.06" stroke-width="3" stroke-miterlimit="10" stroke-linecap="round" stroke-linejoin="round"/>
<path d="M1749.12 105.227C1757.9 99.6278 1755.88 79.3602 1744.6 59.9582C1733.32 40.5562 1717.05 29.3669 1708.27 34.9662C1699.49 40.5654 1701.51 60.8329 1712.79 80.2349C1724.07 99.6369 1740.34 110.826 1749.12 105.227Z" stroke="#4D2C5E" stroke-opacity="0.06" stroke-width="3" stroke-miterlimit="10" stroke-linecap="round" stroke-linejoin="round"/>
<path d="M1728.72 75.2422C1731.44 75.2422 1733.65 72.9314 1733.65 70.081C1733.65 67.2306 1731.44 64.9199 1728.72 64.9199C1726 64.9199 1723.79 67.2306 1723.79 70.081C1723.79 72.9314 1726 75.2422 1728.72 75.2422Z" stroke="#4D2C5E" stroke-opacity="0.06" stroke-width="3" stroke-miterlimit="10" stroke-linecap="round" stroke-linejoin="round"/>
<path d="M697.28 521.75C718.974 521.75 736.56 513.021 736.56 502.253C736.56 491.485 718.974 482.756 697.28 482.756C675.586 482.756 658 491.485 658 502.253C658 513.021 675.586 521.75 697.28 521.75Z" stroke="#4D2C5E" stroke-opacity="0.06" stroke-width="3" stroke-miterlimit="10" stroke-linecap="round" stroke-linejoin="round"/>
<path d="M713.165 512.416C724.446 493.014 726.471 472.746 717.688 467.147C708.905 461.548 692.64 472.737 681.36 492.139C670.079 511.541 668.054 531.809 676.837 537.408C685.619 543.007 701.884 531.818 713.165 512.416Z" stroke="#4D2C5E" stroke-opacity="0.06" stroke-width="3" stroke-miterlimit="10" stroke-linecap="round" stroke-linejoin="round"/>
<path d="M717.68 537.399C726.463 531.8 724.438 511.532 713.157 492.13C701.877 472.728 685.612 461.539 676.829 467.138C668.046 472.738 670.071 493.005 681.352 512.407C692.633 531.809 708.898 542.998 717.68 537.399Z" stroke="#4D2C5E" stroke-opacity="0.06" stroke-width="3" stroke-miterlimit="10" stroke-linecap="round" stroke-linejoin="round"/>
<path d="M697.28 507.414C700.002 507.414 702.209 505.104 702.209 502.253C702.209 499.403 700.002 497.092 697.28 497.092C694.558 497.092 692.351 499.403 692.351 502.253C692.351 505.104 694.558 507.414 697.28 507.414Z" stroke="#4D2C5E" stroke-opacity="0.06" stroke-width="3" stroke-miterlimit="10" stroke-linecap="round" stroke-linejoin="round"/>
<path d="M1742.54 685.406L1710.1 693.246L1708.65 686.626C1708.31 685.092 1709.22 683.564 1710.68 683.206L1737.81 676.645C1739.28 676.294 1740.74 677.244 1741.08 678.778L1742.54 685.406Z" stroke="#4D2C5E" stroke-opacity="0.06" stroke-width="3" stroke-miterlimit="10" stroke-linecap="round"/>
<path d="M1731.88 649.804C1746.17 637.734 1748.42 615.813 1736.89 600.843C1725.36 585.873 1704.43 583.522 1690.13 595.592C1675.84 607.663 1673.59 629.584 1685.12 644.554C1696.65 659.524 1717.58 661.875 1731.88 649.804Z" stroke="#4D2C5E" stroke-opacity="0.06" stroke-width="3" stroke-miterlimit="10"/>
<path d="M1726.48 653.503L1695.47 591.904L1691.6 584.429C1671.38 595.587 1663.64 621.79 1674.29 642.959C1684.95 664.127 1709.97 672.238 1730.19 661.08L1726.4 653.554" stroke="#4D2C5E" stroke-opacity="0.06" stroke-width="3" stroke-miterlimit="10" stroke-linecap="round" stroke-linejoin="round"/>
<path d="M1702.31 605.402C1712.46 599.796 1719.16 592.222 1717.28 588.485C1715.4 584.747 1705.64 586.261 1695.49 591.866C1685.34 597.471 1678.63 605.045 1680.51 608.783C1682.4 612.521 1692.15 611.007 1702.31 605.402Z" stroke="#4D2C5E" stroke-opacity="0.06" stroke-width="3" stroke-miterlimit="10"/>
<path d="M1704.69 656.886C1711.86 658.333 1719.52 657.346 1726.48 653.503C1733.44 649.659 1738.55 643.594 1741.46 636.587C1734.3 635.14 1726.63 636.127 1719.67 639.97C1712.71 643.814 1707.6 649.878 1704.69 656.886Z" stroke="#4D2C5E" stroke-opacity="0.06" stroke-width="3" stroke-miterlimit="10"/>
<path d="M1726.51 653.465C1734.63 648.982 1734.27 631.557 1725.7 614.547C1717.14 597.536 1703.61 587.381 1695.49 591.865C1687.37 596.348 1687.73 613.772 1696.29 630.783C1704.86 647.793 1718.39 657.948 1726.51 653.465Z" stroke="#4D2C5E" stroke-opacity="0.06" stroke-width="3" stroke-miterlimit="10"/>
<path d="M1681.56 638.94L1740.39 606.467" stroke="#4D2C5E" stroke-opacity="0.06" stroke-width="3" stroke-miterlimit="10"/>
<path d="M1720.63 664.873L1724.07 679.867" stroke="#4D2C5E" stroke-opacity="0.06" stroke-width="3" stroke-miterlimit="10"/>
<path d="M1706.21 694.642L1747.56 684.259" stroke="#4D2C5E" stroke-opacity="0.06" stroke-width="3" stroke-miterlimit="10" stroke-linecap="round"/>
<path d="M399.29 166.669L366.856 174.509L365.397 167.889C365.062 166.355 365.969 164.828 367.435 164.47L394.566 157.908C396.031 157.557 397.49 158.507 397.832 160.041L399.29 166.669Z" stroke="#4D2C5E" stroke-opacity="0.06" stroke-width="3" stroke-miterlimit="10" stroke-linecap="round"/>
<path d="M388.629 131.068C402.925 118.997 405.17 97.0764 393.643 82.1061C382.116 67.1359 361.182 64.7851 346.886 76.8555C332.589 88.926 330.345 110.847 341.872 125.817C353.399 140.787 374.333 143.138 388.629 131.068Z" stroke="#4D2C5E" stroke-opacity="0.06" stroke-width="3" stroke-miterlimit="10"/>
<path d="M383.233 134.766L352.222 73.1673L348.349 65.6921C328.134 76.8501 320.388 103.053 331.044 124.222C341.699 145.391 366.723 153.501 386.939 142.344L383.15 134.817" stroke="#4D2C5E" stroke-opacity="0.06" stroke-width="3" stroke-miterlimit="10" stroke-linecap="round" stroke-linejoin="round"/>
<path d="M359.057 86.6648C369.21 81.0596 375.914 73.4857 374.032 69.748C372.151 66.0103 362.395 67.5242 352.242 73.1294C342.089 78.7346 335.385 86.3086 337.267 90.0462C339.149 93.7839 348.905 92.27 359.057 86.6648Z" stroke="#4D2C5E" stroke-opacity="0.06" stroke-width="3" stroke-miterlimit="10"/>
<path d="M361.44 138.149C368.607 139.596 376.276 138.609 383.233 134.766C390.191 130.922 395.306 124.858 398.215 117.85C391.049 116.403 383.38 117.39 376.423 121.233C369.458 125.077 364.35 131.142 361.44 138.149Z" stroke="#4D2C5E" stroke-opacity="0.06" stroke-width="3" stroke-miterlimit="10"/>
<path d="M383.259 134.728C391.38 130.245 391.019 112.821 382.454 95.81C373.89 78.7995 360.363 68.6443 352.242 73.1277C344.122 77.6111 344.482 95.0354 353.047 112.046C361.612 129.056 375.138 139.212 383.259 134.728Z" stroke="#4D2C5E" stroke-opacity="0.06" stroke-width="3" stroke-miterlimit="10"/>
<path d="M338.315 120.203L397.141 87.7302" stroke="#4D2C5E" stroke-opacity="0.06" stroke-width="3" stroke-miterlimit="10"/>
<path d="M377.385 146.136L380.819 161.13" stroke="#4D2C5E" stroke-opacity="0.06" stroke-width="3" stroke-miterlimit="10"/>
<path d="M362.962 175.905L404.307 165.522" stroke="#4D2C5E" stroke-opacity="0.06" stroke-width="3" stroke-miterlimit="10" stroke-linecap="round"/>
<path d="M1764.73 468.001L1782.04 449.88L1734.09 399.67L1716.78 417.79L1764.73 468.001Z" stroke="#4D2C5E" stroke-opacity="0.06" stroke-width="3" stroke-miterlimit="10" stroke-linecap="round" stroke-linejoin="round"/>
<path d="M1786.71 472.903L1782.03 449.876L1764.72 467.998L1786.71 472.903Z" stroke="#4D2C5E" stroke-opacity="0.06" stroke-width="3" stroke-miterlimit="10" stroke-linecap="round" stroke-linejoin="round"/>
<path d="M1784.53 462.159L1776.45 470.614" stroke="#4D2C5E" stroke-opacity="0.06" stroke-width="3" stroke-miterlimit="10" stroke-linecap="round" stroke-linejoin="round"/>
<path d="M1711.68 403.975L1720.88 394.341C1723.12 391.996 1726.75 391.996 1728.99 394.341L1734.07 399.669L1716.77 417.79L1711.68 412.462C1709.44 410.117 1709.44 406.312 1711.68 403.975Z" stroke="#4D2C5E" stroke-opacity="0.06" stroke-width="3" stroke-miterlimit="10" stroke-linecap="round" stroke-linejoin="round"/>
<path d="M1738.75 404.558L1721.45 422.687" stroke="#4D2C5E" stroke-opacity="0.06" stroke-width="3" stroke-miterlimit="10" stroke-linecap="round" stroke-linejoin="round"/>
<path d="M1773.38 458.937L1730.1 413.626" stroke="#4D2C5E" stroke-opacity="0.06" stroke-width="3" stroke-miterlimit="10" stroke-linecap="round" stroke-linejoin="round"/>
<path d="M412.039 687.043L408.831 694.645" stroke="#4D2C5E" stroke-opacity="0.06" stroke-width="4" stroke-miterlimit="10" stroke-linecap="round" stroke-linejoin="round"/>
<path d="M435.157 697.663L431.949 705.265" stroke="#4D2C5E" stroke-opacity="0.06" stroke-width="4" stroke-miterlimit="10" stroke-linecap="round" stroke-linejoin="round"/>
<path d="M458.281 708.277L455.073 715.879" stroke="#4D2C5E" stroke-opacity="0.06" stroke-width="4" stroke-miterlimit="10" stroke-linecap="round" stroke-linejoin="round"/>
<path d="M396.56 679.938L394.956 683.745" stroke="#4D2C5E" stroke-opacity="0.06" stroke-width="4" stroke-miterlimit="10" stroke-linecap="round" stroke-linejoin="round"/>
<path d="M404.296 683.497L402.693 687.292" stroke="#4D2C5E" stroke-opacity="0.06" stroke-width="4" stroke-miterlimit="10" stroke-linecap="round" stroke-linejoin="round"/>
<path d="M419.724 690.574L418.119 694.381" stroke="#4D2C5E" stroke-opacity="0.06" stroke-width="4" stroke-miterlimit="10" stroke-linecap="round" stroke-linejoin="round"/>
<path d="M427.454 694.126L425.856 697.927" stroke="#4D2C5E" stroke-opacity="0.06" stroke-width="4" stroke-miterlimit="10" stroke-linecap="round" stroke-linejoin="round"/>
<path d="M442.888 701.209L441.283 705.016" stroke="#4D2C5E" stroke-opacity="0.06" stroke-width="4" stroke-miterlimit="10" stroke-linecap="round" stroke-linejoin="round"/>
<path d="M466.386 712.001L464.787 715.803" stroke="#4D2C5E" stroke-opacity="0.06" stroke-width="4" stroke-miterlimit="10" stroke-linecap="round" stroke-linejoin="round"/>
<path d="M450.618 704.761L449.02 708.563" stroke="#4D2C5E" stroke-opacity="0.06" stroke-width="4" stroke-miterlimit="10" stroke-linecap="round" stroke-linejoin="round"/>
<path d="M453.076 772.787L376.949 671.102L476.77 716.602L453.076 772.787Z" stroke="#4D2C5E" stroke-opacity="0.06" stroke-width="4" stroke-miterlimit="10" stroke-linecap="round" stroke-linejoin="round"/>
<path d="M449.325 740.64L428.499 712.823L455.804 725.264L449.325 740.64Z" stroke="#4D2C5E" stroke-opacity="0.06" stroke-width="4" stroke-miterlimit="10" stroke-linecap="round" stroke-linejoin="round"/>
<path d="M923.068 362.384L919.86 369.986" stroke="#4D2C5E" stroke-opacity="0.06" stroke-width="4" stroke-miterlimit="10" stroke-linecap="round" stroke-linejoin="round"/>
<path d="M946.186 373.004L942.978 380.606" stroke="#4D2C5E" stroke-opacity="0.06" stroke-width="4" stroke-miterlimit="10" stroke-linecap="round" stroke-linejoin="round"/>
<path d="M969.31 383.617L966.102 391.219" stroke="#4D2C5E" stroke-opacity="0.06" stroke-width="4" stroke-miterlimit="10" stroke-linecap="round" stroke-linejoin="round"/>
<path d="M907.59 355.279L905.986 359.086" stroke="#4D2C5E" stroke-opacity="0.06" stroke-width="4" stroke-miterlimit="10" stroke-linecap="round" stroke-linejoin="round"/>
<path d="M915.326 358.838L913.722 362.633" stroke="#4D2C5E" stroke-opacity="0.06" stroke-width="4" stroke-miterlimit="10" stroke-linecap="round" stroke-linejoin="round"/>
<path d="M930.754 365.915L929.149 369.722" stroke="#4D2C5E" stroke-opacity="0.06" stroke-width="4" stroke-miterlimit="10" stroke-linecap="round" stroke-linejoin="round"/>
<path d="M938.484 369.467L936.886 373.268" stroke="#4D2C5E" stroke-opacity="0.06" stroke-width="4" stroke-miterlimit="10" stroke-linecap="round" stroke-linejoin="round"/>
<path d="M953.917 376.55L952.313 380.357" stroke="#4D2C5E" stroke-opacity="0.06" stroke-width="4" stroke-miterlimit="10" stroke-linecap="round" stroke-linejoin="round"/>
<path d="M977.415 387.342L975.817 391.143" stroke="#4D2C5E" stroke-opacity="0.06" stroke-width="4" stroke-miterlimit="10" stroke-linecap="round" stroke-linejoin="round"/>
<path d="M961.648 380.102L960.05 383.904" stroke="#4D2C5E" stroke-opacity="0.06" stroke-width="4" stroke-miterlimit="10" stroke-linecap="round" stroke-linejoin="round"/>
<path d="M964.106 448.128L887.978 346.443L987.8 391.942L964.106 448.128Z" stroke="#4D2C5E" stroke-opacity="0.06" stroke-width="4" stroke-miterlimit="10" stroke-linecap="round" stroke-linejoin="round"/>
<path d="M960.355 415.981L939.529 388.164L966.833 400.605L960.355 415.981Z" stroke="#4D2C5E" stroke-opacity="0.06" stroke-width="4" stroke-miterlimit="10" stroke-linecap="round" stroke-linejoin="round"/>
<path d="M639.774 25.037L611 39.605L668.351 163.811L697.124 149.243L639.774 25.037Z" stroke="#4D2C5E" stroke-opacity="0.06" stroke-width="4" stroke-miterlimit="10" stroke-linecap="round" stroke-linejoin="round"/>
<path d="M646.64 39.9417L632.26 47.2192" stroke="#4D2C5E" stroke-opacity="0.06" stroke-width="4" stroke-miterlimit="10" stroke-linecap="round" stroke-linejoin="round"/>
<path d="M659.93 68.717L645.54 76.0051" stroke="#4D2C5E" stroke-opacity="0.06" stroke-width="4" stroke-miterlimit="10" stroke-linecap="round" stroke-linejoin="round"/>
<path d="M673.22 97.4922L658.83 104.78" stroke="#4D2C5E" stroke-opacity="0.06" stroke-width="4" stroke-miterlimit="10" stroke-linecap="round" stroke-linejoin="round"/>
<path d="M686.5 126.278L672.12 133.556" stroke="#4D2C5E" stroke-opacity="0.06" stroke-width="4" stroke-miterlimit="10" stroke-linecap="round" stroke-linejoin="round"/>
<path d="M651.04 49.4707L643.85 53.1043" stroke="#4D2C5E" stroke-opacity="0.06" stroke-width="4" stroke-miterlimit="10" stroke-linecap="round" stroke-linejoin="round"/>
<path d="M655.48 59.0938L648.29 62.7378" stroke="#4D2C5E" stroke-opacity="0.06" stroke-width="4" stroke-miterlimit="10" stroke-linecap="round" stroke-linejoin="round"/>
<path d="M664.35 78.2983L657.16 81.9319" stroke="#4D2C5E" stroke-opacity="0.06" stroke-width="4" stroke-miterlimit="10" stroke-linecap="round" stroke-linejoin="round"/>
<path d="M668.79 87.9214L661.6 91.5654" stroke="#4D2C5E" stroke-opacity="0.06" stroke-width="4" stroke-miterlimit="10" stroke-linecap="round" stroke-linejoin="round"/>
<path d="M677.66 107.126L670.47 110.76" stroke="#4D2C5E" stroke-opacity="0.06" stroke-width="4" stroke-miterlimit="10" stroke-linecap="round" stroke-linejoin="round"/>
<path d="M682.11 116.749L674.91 120.393" stroke="#4D2C5E" stroke-opacity="0.06" stroke-width="4" stroke-miterlimit="10" stroke-linecap="round" stroke-linejoin="round"/>
<path d="M410.774 302L382 316.568L439.351 440.774L468.124 426.206L410.774 302Z" stroke="#4D2C5E" stroke-opacity="0.06" stroke-width="4" stroke-miterlimit="10" stroke-linecap="round" stroke-linejoin="round"/>
<path d="M417.64 316.905L403.26 324.182" stroke="#4D2C5E" stroke-opacity="0.06" stroke-width="4" stroke-miterlimit="10" stroke-linecap="round" stroke-linejoin="round"/>
<path d="M430.93 345.68L416.54 352.968" stroke="#4D2C5E" stroke-opacity="0.06" stroke-width="4" stroke-miterlimit="10" stroke-linecap="round" stroke-linejoin="round"/>
<path d="M444.22 374.455L429.83 381.743" stroke="#4D2C5E" stroke-opacity="0.06" stroke-width="4" stroke-miterlimit="10" stroke-linecap="round" stroke-linejoin="round"/>
<path d="M457.5 403.241L443.12 410.519" stroke="#4D2C5E" stroke-opacity="0.06" stroke-width="4" stroke-miterlimit="10" stroke-linecap="round" stroke-linejoin="round"/>
<path d="M422.04 326.434L414.85 330.067" stroke="#4D2C5E" stroke-opacity="0.06" stroke-width="4" stroke-miterlimit="10" stroke-linecap="round" stroke-linejoin="round"/>
<path d="M426.48 336.057L419.29 339.701" stroke="#4D2C5E" stroke-opacity="0.06" stroke-width="4" stroke-miterlimit="10" stroke-linecap="round" stroke-linejoin="round"/>
<path d="M435.35 355.261L428.16 358.895" stroke="#4D2C5E" stroke-opacity="0.06" stroke-width="4" stroke-miterlimit="10" stroke-linecap="round" stroke-linejoin="round"/>
<path d="M439.79 364.884L432.6 368.528" stroke="#4D2C5E" stroke-opacity="0.06" stroke-width="4" stroke-miterlimit="10" stroke-linecap="round" stroke-linejoin="round"/>
<path d="M448.66 384.089L441.47 387.722" stroke="#4D2C5E" stroke-opacity="0.06" stroke-width="4" stroke-miterlimit="10" stroke-linecap="round" stroke-linejoin="round"/>
<path d="M453.11 393.712L445.91 397.356" stroke="#4D2C5E" stroke-opacity="0.06" stroke-width="4" stroke-miterlimit="10" stroke-linecap="round" stroke-linejoin="round"/>
<path d="M901.774 632L873 646.568L930.351 770.774L959.124 756.206L901.774 632Z" stroke="#4D2C5E" stroke-opacity="0.06" stroke-width="4" stroke-miterlimit="10" stroke-linecap="round" stroke-linejoin="round"/>
<path d="M908.64 646.905L894.26 654.182" stroke="#4D2C5E" stroke-opacity="0.06" stroke-width="4" stroke-miterlimit="10" stroke-linecap="round" stroke-linejoin="round"/>
<path d="M921.93 675.68L907.54 682.968" stroke="#4D2C5E" stroke-opacity="0.06" stroke-width="4" stroke-miterlimit="10" stroke-linecap="round" stroke-linejoin="round"/>
<path d="M935.22 704.455L920.83 711.743" stroke="#4D2C5E" stroke-opacity="0.06" stroke-width="4" stroke-miterlimit="10" stroke-linecap="round" stroke-linejoin="round"/>
<path d="M948.5 733.241L934.12 740.519" stroke="#4D2C5E" stroke-opacity="0.06" stroke-width="4" stroke-miterlimit="10" stroke-linecap="round" stroke-linejoin="round"/>
<path d="M913.04 656.434L905.85 660.067" stroke="#4D2C5E" stroke-opacity="0.06" stroke-width="4" stroke-miterlimit="10" stroke-linecap="round" stroke-linejoin="round"/>
<path d="M917.48 666.057L910.29 669.701" stroke="#4D2C5E" stroke-opacity="0.06" stroke-width="4" stroke-miterlimit="10" stroke-linecap="round" stroke-linejoin="round"/>
<path d="M926.35 685.261L919.16 688.895" stroke="#4D2C5E" stroke-opacity="0.06" stroke-width="4" stroke-miterlimit="10" stroke-linecap="round" stroke-linejoin="round"/>
<path d="M930.79 694.884L923.6 698.528" stroke="#4D2C5E" stroke-opacity="0.06" stroke-width="4" stroke-miterlimit="10" stroke-linecap="round" stroke-linejoin="round"/>
<path d="M939.66 714.089L932.47 717.722" stroke="#4D2C5E" stroke-opacity="0.06" stroke-width="4" stroke-miterlimit="10" stroke-linecap="round" stroke-linejoin="round"/>
<path d="M944.11 723.712L936.91 727.356" stroke="#4D2C5E" stroke-opacity="0.06" stroke-width="4" stroke-miterlimit="10" stroke-linecap="round" stroke-linejoin="round"/>
<path d="M40.0008 653.98L8.77077 669.341C7.10077 670.168 5.11082 669.414 4.32082 667.666L2.32082 663.205C1.53082 661.456 2.2508 659.372 3.9208 658.545L35.1508 643.184C36.8208 642.356 38.8108 643.11 39.6008 644.859L41.6008 649.32C42.3908 651.079 41.6708 653.163 40.0008 653.98Z" stroke="#4D2C5E" stroke-opacity="0.06" stroke-width="4" stroke-miterlimit="10" stroke-linecap="round"/>
<path d="M52.1309 688.87L36.851 655.55L12.1309 667.98L27.4109 701.3L37.0509 757.049C40.2209 763.971 48.1509 766.882 54.7509 763.562L81.4409 750.138C88.0509 746.819 90.8309 738.515 87.6609 731.604L52.1309 688.87Z" stroke="#4D2C5E" stroke-opacity="0.06" stroke-width="4" stroke-miterlimit="10" stroke-linecap="round"/>
<path d="M31.7507 726.441C31.7507 726.441 36.8508 717.792 50.4108 718.284C63.9708 718.776 66.2507 705.844 66.2507 705.844" stroke="#4D2C5E" stroke-opacity="0.06" stroke-width="4" stroke-miterlimit="10" stroke-linecap="round"/>
<path d="M1230 313.132L1198.77 328.493C1197.1 329.321 1195.11 328.567 1194.32 326.818L1192.32 322.357C1191.53 320.608 1192.25 318.525 1193.92 317.697L1225.15 302.336C1226.82 301.509 1228.81 302.263 1229.6 304.011L1231.6 308.472C1232.39 310.231 1231.67 312.315 1230 313.132Z" stroke="#4D2C5E" stroke-opacity="0.06" stroke-width="4" stroke-miterlimit="10" stroke-linecap="round"/>
<path d="M1242.13 348.023L1226.85 314.703L1202.13 327.132L1217.41 360.452L1227.05 416.202C1230.22 423.123 1238.15 426.034 1244.75 422.715L1271.44 409.29C1278.05 405.971 1280.83 397.667 1277.66 390.756L1242.13 348.023Z" stroke="#4D2C5E" stroke-opacity="0.06" stroke-width="4" stroke-miterlimit="10" stroke-linecap="round"/>
<path d="M1221.75 385.594C1221.75 385.594 1226.85 376.944 1240.41 377.437C1253.97 377.929 1256.25 364.997 1256.25 364.997" stroke="#4D2C5E" stroke-opacity="0.06" stroke-width="4" stroke-miterlimit="10" stroke-linecap="round"/>
<path d="M83.48 115.049C95.3431 115.049 104.96 104.979 104.96 92.5565C104.96 80.1342 95.3431 70.064 83.48 70.064C71.617 70.064 62 80.1342 62 92.5565C62 104.979 71.617 115.049 83.48 115.049Z" stroke="#4D2C5E" stroke-opacity="0.06" stroke-width="4" stroke-miterlimit="10" stroke-linecap="round" stroke-linejoin="round"/>
<path d="M113.59 137.269C118.334 137.269 122.18 133.242 122.18 128.274C122.18 123.306 118.334 119.279 113.59 119.279C108.846 119.279 105 123.306 105 128.274C105 133.242 108.846 137.269 113.59 137.269Z" stroke="#4D2C5E" stroke-opacity="0.06" stroke-width="4" stroke-miterlimit="10" stroke-linecap="round" stroke-linejoin="round"/>
<path d="M1516.48 303.985C1528.34 303.985 1537.96 293.915 1537.96 281.492C1537.96 269.07 1528.34 259 1516.48 259C1504.62 259 1495 269.07 1495 281.492C1495 293.915 1504.62 303.985 1516.48 303.985Z" stroke="#4D2C5E" stroke-opacity="0.06" stroke-width="4" stroke-miterlimit="10" stroke-linecap="round" stroke-linejoin="round"/>
<path d="M1546.59 326.205C1551.33 326.205 1555.18 322.178 1555.18 317.21C1555.18 312.242 1551.33 308.215 1546.59 308.215C1541.85 308.215 1538 312.242 1538 317.21C1538 322.178 1541.85 326.205 1546.59 326.205Z" stroke="#4D2C5E" stroke-opacity="0.06" stroke-width="4" stroke-miterlimit="10" stroke-linecap="round" stroke-linejoin="round"/>
</svg>
