<svg width="62" height="62" viewBox="0 0 62 62" fill="none" xmlns="http://www.w3.org/2000/svg">
<path d="M29.2478 22.838C29.9647 23.8138 30.9997 24.5087 32.1742 24.8027C32.2908 23.0869 32.4041 21.331 31.9476 19.6704C31.7766 19.0497 31.4813 18.3984 30.903 18.1158C30.424 17.8808 29.8284 17.9576 29.3753 18.2387C28.7263 18.6428 28.2158 19.4277 28.2746 20.1896C28.3488 21.1452 28.6855 22.0617 29.2476 22.838" fill="#6A3B1A"/>
<path d="M27.7783 3.52392C27.7783 3.52392 31.9163 1.39629 32.2655 1.05227C32.6147 0.708243 32.7968 0.354888 33.259 0.525402C33.7212 0.695916 33.552 1.15676 33.552 1.15676C33.552 1.15676 34.1446 1.00618 34.4035 1.33799C34.6624 1.6698 34.1814 2.59461 34.1814 2.59461C34.1814 2.59461 38.2653 -0.345599 38.8561 0.0337946C39.9146 0.712741 34.8352 3.45018 35.1093 3.6684C35.2355 3.76978 36.1347 3.57772 37.0839 3.38578C38.1942 3.15996 39.3724 2.93565 39.4596 3.1799C39.6209 3.63153 38.8282 3.97106 37.7099 4.37349C36.5915 4.77593 33.7137 5.7929 32.3857 6.30295C31.0576 6.81299 29.5413 7.37062 29.5413 7.37062L25.6855 9.30158L24.1016 5.07409L27.7786 3.52414" fill="#FFB370"/>
<path d="M32.21 3.0753C32.2063 2.98463 33.3152 1.45312 33.5377 1.14746L33.5652 1.16588C33.039 1.89092 32.2528 2.99695 32.244 3.0753H32.21Z" fill="#E2474D"/>
<path d="M32.0636 4.47332C31.9253 4.24289 32.1174 3.4303 32.1871 3.1584C32.0345 3.36267 31.5917 3.91569 31.2557 3.93573C31.2145 3.93926 31.173 3.93287 31.1347 3.9171C31.0965 3.90133 31.0625 3.87662 31.0358 3.84506C30.8782 3.66844 31.0382 3.13997 31.5115 2.27507C31.7529 1.83227 32.0176 1.40256 32.3045 0.987793L32.3286 1.01233C32.0434 1.42515 31.7804 1.85281 31.5405 2.29349C31.0819 3.13074 30.9161 3.66073 31.0611 3.82203C31.0843 3.85005 31.1139 3.87197 31.1475 3.88589C31.1811 3.89981 31.2176 3.9053 31.2538 3.90187C31.6409 3.87883 32.2072 3.07383 32.2131 3.06461L32.2698 2.98317L32.2434 3.07994C32.2403 3.09065 31.9374 4.1952 32.0928 4.45638L32.0637 4.47332" fill="#E2474D"/>
<path d="M32.7375 6.12144L32.7072 6.10611C32.7195 6.08157 33.9129 3.76039 34.0774 2.88478C34.1821 2.32715 33.8909 2.04142 33.6694 1.98612C33.6338 1.97353 33.5961 1.96832 33.5584 1.97077C33.5208 1.97323 33.484 1.98332 33.4504 2.00042C33.4168 2.01752 33.387 2.04128 33.3628 2.07025C33.3386 2.09922 33.3206 2.13281 33.3098 2.16896C33.1707 2.60827 32.4067 4.26583 32.0357 4.55156C31.9215 4.63276 31.8026 4.70712 31.6796 4.77426C31.2066 5.04766 30.5591 5.42095 30.5511 5.98169H30.5171C30.5254 5.40102 31.1827 5.02162 31.6624 4.74511C31.7836 4.67802 31.9013 4.60469 32.0148 4.5254C32.3734 4.24889 33.143 2.58373 33.2772 2.15813C33.2896 2.11812 33.3099 2.08097 33.3368 2.04887C33.3638 2.01678 33.3968 1.99038 33.4341 1.97121C33.4713 1.95204 33.512 1.94049 33.5538 1.93723C33.5956 1.93398 33.6376 1.93909 33.6774 1.95225C33.9667 2.02599 34.2083 2.37162 34.1106 2.89088C33.9451 3.7726 32.7492 6.0984 32.7372 6.12144" fill="#E2474D"/>
<path d="M52.1168 39.3103C52.1168 39.3103 54.7777 35.493 55.1652 35.1919C55.5528 34.8909 55.9267 34.7587 55.8202 34.2779C55.7138 33.7972 55.2326 33.9032 55.2326 33.9032C55.2326 33.9032 55.4602 33.3363 55.1666 33.0353C54.873 32.7342 53.891 33.0875 53.891 33.0875C53.891 33.0875 57.3501 29.4329 57.0529 28.797C56.7659 28.1825 55.649 29.2547 54.6518 30.3285C53.7993 31.2456 53.0333 32.1641 52.9504 32.0259C52.7703 31.7248 54.4426 27.9996 54.0154 27.78C53.5882 27.5604 53.1468 28.2992 52.5983 29.3546C52.0498 30.4099 50.6587 33.1258 49.9769 34.3747C49.295 35.6236 48.539 37.0508 48.539 37.0508L46.1123 40.6146L50.0907 42.7478L52.1165 39.3104" fill="#FFB370"/>
<path d="M53.1551 34.9768H53.1523L53.1575 34.9445C53.2382 34.9445 54.4373 34.3131 55.2244 33.8892L55.2406 33.9183C54.9105 34.0965 53.271 34.9768 53.1552 34.9768" fill="#E2474D"/>
<path d="M52.5205 36.1289C52.469 36.1349 52.4169 36.1299 52.3674 36.1143C52.318 36.0986 52.2725 36.0727 52.2338 36.0383C52.206 36.0075 52.1859 35.9705 52.1752 35.9305C52.1645 35.8904 52.1634 35.8484 52.1721 35.8078C52.237 35.4775 52.8445 35.1134 53.0674 34.989C52.7886 35.0213 51.9585 35.1042 51.7476 34.9352L51.7688 34.9091C52.0066 35.098 53.1418 34.9459 53.1532 34.9428L53.2514 34.9305L53.1633 34.9751C53.1545 34.9797 52.2803 35.4344 52.2055 35.8153C52.1978 35.8507 52.1986 35.8875 52.208 35.9225C52.2174 35.9575 52.235 35.9898 52.2595 36.0166C52.4011 36.1825 52.947 36.0872 53.8392 35.7447C54.3075 35.5651 54.7662 35.3616 55.2135 35.1349L55.2339 35.161C54.785 35.3907 54.3239 35.5958 53.8527 35.7755C53.2415 36.0105 52.7959 36.1289 52.5205 36.1289Z" fill="#E2474D"/>
<path d="M50.1381 36.2733C50.1076 36.2735 50.0771 36.2715 50.0469 36.2672L50.051 36.2334C50.6078 36.301 51.0649 35.708 51.399 35.2763C51.4819 35.1637 51.5713 35.056 51.6666 34.9537C51.9995 34.6235 53.7436 34.0873 54.1986 34.0075C54.2358 34.0017 54.2715 33.9883 54.3034 33.9682C54.3353 33.9481 54.3628 33.9218 54.3842 33.8907C54.4056 33.8597 54.4204 33.8246 54.4278 33.7876C54.4352 33.7507 54.435 33.7126 54.4272 33.6757C54.4018 33.4499 54.1578 33.1227 53.5907 33.1518C52.7007 33.1979 50.2408 34.072 50.216 34.0812L50.2045 34.049C50.2293 34.0398 52.6936 33.1642 53.5886 33.1181C54.1167 33.0904 54.4275 33.3761 54.4609 33.6726C54.4688 33.7137 54.4684 33.756 54.4598 33.797C54.4511 33.8379 54.4343 33.8767 54.4103 33.9111C54.3864 33.9455 54.3559 33.9747 54.3204 33.997C54.285 34.0194 54.2455 34.0344 54.2042 34.0413C53.7651 34.1181 52.0123 34.6588 51.6903 34.9768C51.5957 35.0785 51.5072 35.1857 51.4253 35.2979C51.1046 35.7127 50.6718 36.2734 50.1378 36.2734" fill="#E2474D"/>
<path d="M20.6402 30.2269C20.6402 30.2269 18.4806 46.3434 18.1119 51.1892C17.9061 53.8939 17.4171 57.5402 16.6082 60.6552H41.6572C41.1449 59.4226 40.7047 58.1612 40.3388 56.8774C39.3907 53.4012 39.3907 51.9792 39.3907 51.9792C39.3907 51.9792 41.5503 54.4545 43.894 52.7165C46.2378 50.9785 53.6265 38.9507 53.6265 38.9507L48.0812 35.2302L42.8917 43.574C42.2597 42.7312 43.973 33.6495 42.8141 31.2792C41.6553 28.9089 35.5459 26.3282 35.5459 26.3282C35.5459 26.3282 16.3738 20.0084 15.8998 17.5859C15.4257 15.1633 30.5421 7.73603 30.5421 7.73603C30.5421 7.73603 29.8047 3.47007 28.0665 2.62683C28.0665 2.62683 7.31436 9.52724 6.4717 16.0575C5.62903 22.5877 20.6402 30.2269 20.6402 30.2269Z" fill="#2196F3"/>
<path d="M39.391 52.0136L39.3647 52.001C39.3573 51.9921 38.6149 51.0785 37.9804 48.9082C36.9215 45.2855 36.9665 40.997 37.1909 38.0368C37.1917 38.0278 37.196 38.0194 37.2028 38.0134C37.2096 38.0074 37.2184 38.0042 37.2275 38.0045C37.2365 38.0053 37.245 38.0096 37.2509 38.0165C37.2568 38.0234 37.2598 38.0323 37.2592 38.0414C37.0353 40.9955 36.99 45.2761 38.0462 48.889C38.6766 51.0459 39.4102 51.9486 39.4172 51.9574C39.4228 51.9645 39.4255 51.9734 39.4247 51.9824C39.4238 51.9914 39.4195 51.9997 39.4126 52.0055L39.3908 52.0134" fill="white"/>
<path d="M29.4885 24.213C29.4885 24.213 28.616 23.3343 27.4493 23.4572L23.3306 28.8414L26.4095 31.095L23.7596 32.2763C23.7596 32.2763 28.464 53.7942 28.4883 53.8624C28.4883 53.8624 28.6981 42.1454 30.0938 34.4776L29.4882 24.213" fill="#1D84D6"/>
<path d="M38.4522 27.7518L37.8777 32.5984L34.818 33.0808C34.818 33.0808 35.5158 34.9596 35.4084 35.8721C35.301 36.7846 29.1569 50.7043 28.4888 53.862C28.4888 53.862 28.6986 39.1948 30.0943 34.4772L36.996 26.9976C36.996 26.9976 37.6849 26.7703 38.4522 27.7519" fill="#1D84D6"/>
<path d="M28.4888 60.6896C28.4799 60.6896 28.4713 60.6862 28.4649 60.68C28.4584 60.6738 28.4546 60.6654 28.4542 60.6565C28.4498 60.5054 28.0306 45.427 30.0603 34.4713C30.0609 34.4668 30.0624 34.4625 30.0648 34.4586C30.0672 34.4547 30.0703 34.4513 30.0741 34.4487C30.0778 34.4461 30.0821 34.4443 30.0865 34.4435C30.091 34.4426 30.0956 34.4427 30.1001 34.4437C30.109 34.4454 30.1168 34.4505 30.122 34.458C30.1271 34.4655 30.1291 34.4746 30.1276 34.4836C28.0993 45.4321 28.5182 60.5033 28.5226 60.6544C28.5227 60.6634 28.5193 60.6721 28.5131 60.6787C28.5069 60.6853 28.4984 60.6892 28.4894 60.6895H28.4885" fill="white"/>
<path d="M28.6987 27.4983C28.6987 27.4983 29.8798 34.1545 30.0943 34.4771C30.3088 34.7997 35.409 28.465 35.409 28.465C35.409 28.465 29.8802 26.4787 28.6992 27.4987" fill="#E5E5E5"/>
<path d="M35.399 24.1899C35.399 24.1899 37.1711 26.1946 36.9959 26.998C36.8206 27.8013 35.336 30.4667 34.675 30.4943C34.0141 30.522 32.2702 28.9397 31.9 28.8352C31.5299 28.7307 28.3887 28.8275 28.1772 28.2454C27.9656 27.6632 29.1026 24.3849 29.8428 23.7766C30.583 23.1683 32.2528 22.3388 35.399 24.1899Z" fill="white"/>
<path d="M37.225 20.2066C37.225 20.2066 36.1541 25.6661 35.9701 26.5156C35.9524 26.59 35.9263 26.6622 35.8923 26.7307C35.4274 27.7154 33.2364 29.757 31.9004 28.8353C30.6562 27.9766 30.6962 25.5018 30.7312 24.8351C30.7375 24.7276 30.7427 24.6677 30.7427 24.6677L32.58 18.3387L37.2254 20.2067" fill="#F7966C"/>
<path d="M37.2248 20.2066C37.2248 20.2066 36.1539 25.6661 35.9699 26.5156C35.9522 26.59 35.9261 26.6622 35.8921 26.7307C34.969 26.793 34.0429 26.665 33.1712 26.3548C32.2995 26.0446 31.5008 25.5587 30.8245 24.9273C30.7928 24.8965 30.761 24.8674 30.731 24.8351C30.7373 24.7276 30.7425 24.6677 30.7425 24.6677L32.5798 18.3387L37.2252 20.2067" fill="#EE6622"/>
<path d="M22.1102 12.3364L22.0901 12.3303L21.1043 11.6021L21.0908 11.5684L21.1139 11.5422L26.462 9.82325C26.4706 9.82056 26.4798 9.82129 26.4879 9.82531C26.4959 9.82933 26.502 9.83633 26.505 9.84479C26.5065 9.84906 26.507 9.85358 26.5067 9.85808C26.5064 9.86258 26.5051 9.86697 26.5031 9.87098C26.501 9.87499 26.4982 9.87855 26.4947 9.88143C26.4912 9.88431 26.4872 9.88647 26.4829 9.88776L21.1987 11.5875L22.1306 12.2757C22.1342 12.2783 22.1373 12.2816 22.1396 12.2854C22.1419 12.2893 22.1435 12.2935 22.1442 12.2979C22.1448 12.3024 22.1446 12.3069 22.1435 12.3112C22.1425 12.3156 22.1405 12.3196 22.1379 12.3232L22.1102 12.3371" fill="white"/>
<path d="M41.6416 20.9409C41.5717 21.6554 41.4503 22.3638 41.2784 23.0608C40.7356 25.13 38.1036 26.8551 36.3554 26.7706C34.6073 26.6862 30.8497 24.4065 30.2285 22.2359C29.6072 20.0623 30.9428 15.2402 32.1286 14.2248C32.2798 14.1048 32.449 14.0094 32.6299 13.9422C32.8951 13.8387 33.1688 13.7585 33.4479 13.7026C35.3979 13.2909 38.7872 13.5105 40.7085 15.8931C41.2038 16.5139 41.5725 17.2258 41.7939 17.9885C41.7935 18.9746 41.7426 19.96 41.6416 20.9409Z" fill="#FFB370"/>
<path d="M41.642 20.9409C40.7699 20.2242 39.8356 19.5867 38.8501 19.0361C36.2324 17.5307 32.9457 17.1651 32.9457 17.1651L32.6303 13.9423L32.5806 13.4399L33.4483 13.7026L40.7088 15.893C41.204 16.5139 41.5728 17.2257 41.7942 17.9884C41.7938 18.9745 41.743 19.96 41.642 20.9409Z" fill="#EE6622"/>
<path d="M28.2822 14.3215C27.9323 14.9267 27.784 15.8147 27.6871 16.4153C27.5323 17.367 27.5432 18.3383 27.7193 19.2864C27.8576 20.0252 28.1101 20.7672 28.6162 21.3233C27.7761 20.4016 28.3687 18.9883 29.4843 18.7057C30.0932 18.5536 30.5327 19.0498 30.6974 19.5997C30.7844 19.8962 30.8119 20.207 30.7782 20.5141C30.7446 20.8212 30.6506 21.1187 30.5015 21.3893C31.2152 21.2157 31.8321 20.7473 32.2937 20.1758C32.7554 19.6043 33.0752 18.933 33.3517 18.2526C33.792 17.1696 34.1341 15.9529 33.7574 14.8454C34.1386 15.5444 34.4539 16.0589 35.2951 16.2403C35.7123 16.3141 36.1362 16.3434 36.5596 16.3278C36.8187 16.3278 37.078 16.3278 37.3357 16.3478C38.3129 16.4327 39.2422 16.8089 40.0034 17.4276C40.3881 17.7287 40.7247 18.0866 41.0016 18.4891C41.2551 18.8701 41.6131 19.2187 41.6538 19.6996C41.634 19.4646 41.8099 19.102 41.8567 18.864C41.9198 18.5429 41.9671 18.2193 41.9985 17.8931C42.0592 17.2607 42.0604 16.6239 42.0021 15.9913C41.9441 15.359 41.8265 14.7335 41.6508 14.1234C41.4705 13.4997 41.2767 13.1386 40.8144 12.6886C39.8016 11.7024 38.396 11.1033 36.9832 11.154C35.5705 11.2047 34.177 11.9343 33.4075 13.1203C33.4157 13.108 32.32 12.8622 32.2131 12.853C31.7871 12.8141 31.3579 12.829 30.9356 12.8976C30.1242 13.0296 29.2391 13.357 28.6121 13.9054C28.4802 14.0252 28.3687 14.1657 28.2822 14.3215Z" fill="#6A3B1A"/>
<path d="M29.5654 18.4631C29.309 18.4464 29.053 18.4997 28.8245 18.6171C28.596 18.7345 28.4037 18.9117 28.268 19.1298C28.1368 19.3505 28.0566 19.5977 28.0331 19.8534C28.0096 20.109 28.0435 20.3667 28.1324 20.6076C28.3167 21.0902 28.665 21.4927 29.1162 21.7444C29.3316 21.8855 29.588 21.9509 29.8448 21.9303C30.122 21.8684 30.3643 21.7009 30.52 21.4633C31.1855 20.5569 30.9233 18.5907 29.5655 18.4632" fill="#F7966C"/>
<path d="M30.3555 19.5183C30.4456 19.7109 30.4931 19.9206 30.4949 20.1332C30.4966 20.3458 30.4525 20.5563 30.3655 20.7503C30.2836 20.9438 30.1444 21.1389 29.938 21.1774C29.8551 21.1881 29.7709 21.178 29.6929 21.148C29.6149 21.118 29.5456 21.0689 29.4914 21.0054C29.3842 20.8763 29.3092 20.7236 29.2725 20.5598C29.1646 20.162 29.0795 19.3924 29.3747 19.0451C29.6699 18.6979 30.22 19.254 30.3553 19.5183" fill="#EE6622"/>
<path d="M29.611 21.5369L29.5927 21.4862C29.8669 21.3799 30.0995 21.1879 30.2559 20.9388C30.4122 20.6897 30.484 20.3968 30.4606 20.1037C30.4395 19.7365 30.2273 19.2557 29.8615 19.0483C29.7576 18.9887 29.64 18.9573 29.5202 18.9573C29.4004 18.9573 29.2827 18.9887 29.1789 19.0483C29.0269 19.1286 28.9045 19.2554 28.8296 19.4102C28.7547 19.5649 28.7312 19.7396 28.7626 19.9086L28.7093 19.9209C28.6751 19.7402 28.6999 19.5533 28.7798 19.3877C28.8597 19.2221 28.9907 19.0864 29.1534 19.0007C29.2652 18.9362 29.3919 18.9022 29.521 18.9022C29.65 18.9022 29.7768 18.9362 29.8886 19.0007C30.2712 19.2173 30.4933 19.7182 30.515 20.1007C30.539 20.4055 30.464 20.71 30.3011 20.9688C30.1382 21.2276 29.8961 21.4269 29.6108 21.537" fill="#E2474D"/>
<path d="M28.2022 16.8025L21.1245 11.5749L37.7335 6.23682L47.7502 15.3662L42.3053 17.1651C42.3053 17.1651 31.4024 14.8807 28.2022 16.8025Z" fill="#2196F3"/>
<path d="M27.5627 18.4184C27.5627 18.4184 31.4937 15.5012 36.362 16.6012C41.2303 17.7011 41.786 20.0037 41.786 20.0037L42.9111 13.8453C42.9111 13.8453 39.9386 10.6838 34.8692 10.6439C29.7999 10.6039 27.2236 12.7269 27.2236 12.7269L27.5622 18.4184" fill="#1D84D6"/>
<path d="M32.2114 3.0677C32.2538 2.91873 33.3202 1.44701 33.5379 1.14746L33.5654 1.16588C33.0585 1.86326 32.3118 2.914 32.2484 3.06147L32.27 2.98314L32.2133 3.06458C32.2133 3.06458 32.2125 3.06609 32.2114 3.0677Z" fill="#EC898D"/>
<path d="M32.0636 4.47331C31.9253 4.24288 32.1174 3.43029 32.1871 3.15839C32.0346 3.36266 31.5917 3.91568 31.2557 3.93572C31.2497 3.93697 31.2435 3.93748 31.2373 3.93723C31.199 3.93754 31.1611 3.92944 31.1263 3.91352C31.0915 3.89759 31.0606 3.87422 31.0358 3.84505C31.01 3.80869 30.9917 3.76754 30.9821 3.72401C30.9724 3.68047 30.9715 3.63546 30.9796 3.59159L31.0285 3.48708C30.9959 3.64838 31.0065 3.76049 31.0611 3.82202C31.0825 3.84766 31.1093 3.86826 31.1396 3.88234C31.1699 3.89642 31.2029 3.90363 31.2363 3.90346C31.2421 3.90372 31.248 3.90323 31.2538 3.90197C31.6299 3.88043 32.1755 3.11853 32.2113 3.06784C32.2123 3.06634 32.213 3.06473 32.2131 3.06473L32.2698 2.98327L32.2483 3.0616L32.2433 3.08004C32.2402 3.09076 31.9396 4.18609 32.0909 4.45338L32.0827 4.46259L32.0636 4.47331ZM31.7755 1.88023L31.9087 1.593C32.0533 1.35946 32.177 1.17052 32.2462 1.06913C32.2785 1.02155 32.2989 0.993892 32.3038 0.987671L32.3159 1.00001L32.3274 1.01233C32.3073 1.03226 32.0547 1.40555 31.7744 1.88023" fill="#EC898D"/>
<path d="M32.7377 6.12148L32.7074 6.10615C32.7197 6.08161 33.9131 3.76043 34.0776 2.88482C34.1824 2.32719 33.8911 2.04146 33.6697 1.98616C33.6389 1.9777 33.6072 1.97356 33.5753 1.97384C33.5157 1.97196 33.4571 1.99015 33.4091 2.02552C33.361 2.06089 33.3262 2.11139 33.3103 2.16889C33.1711 2.6082 32.4072 4.26575 32.0362 4.55147C31.922 4.63267 31.8031 4.70704 31.6801 4.77418C31.2071 5.04758 30.5596 5.42088 30.5516 5.98161H30.5176C30.5259 5.40094 31.1832 5.02155 31.6629 4.74504C31.7841 4.67795 31.9017 4.60461 32.0153 4.52533C32.0392 4.50572 32.0618 4.48467 32.0831 4.46231C32.0857 4.4592 32.0885 4.45619 32.0913 4.45308C32.4725 4.03371 33.1523 2.55439 33.2779 2.15806C33.2966 2.09363 33.3362 2.03722 33.3904 1.99773C33.4446 1.95825 33.5104 1.93793 33.5775 1.93996C33.6113 1.94042 33.645 1.94456 33.678 1.95229C33.9673 2.02603 34.2089 2.37166 34.1112 2.89092C33.9457 3.77264 32.7498 6.09844 32.7378 6.12148" fill="#EC898D"/>
<path d="M37.0648 40.7927C37.0791 39.7987 37.1279 38.8648 37.1907 38.0368C37.1915 38.0281 37.1954 38.02 37.2018 38.014C37.2082 38.008 37.2166 38.0047 37.2253 38.0045H37.227C37.2361 38.0053 37.2445 38.0095 37.2504 38.0164C37.2564 38.0233 37.2593 38.0323 37.2587 38.0414C37.1992 38.8263 37.1524 39.7051 37.1353 40.6391L37.0645 40.7927" fill="white"/>
<path d="M28.4297 59.3562C28.4136 58.135 28.4026 56.1318 28.4463 53.6763C28.4951 50.9605 28.6109 47.6917 28.8611 44.3199C29.0981 41.1285 29.4556 37.8459 29.9911 34.8489C30.0141 34.7228 30.0372 34.5954 30.0602 34.471C30.061 34.4657 30.063 34.4607 30.0662 34.4564C30.0693 34.4521 30.0735 34.4487 30.0783 34.4464C30.0829 34.457 30.0881 34.4672 30.0939 34.4772C30.0968 34.4809 30.1006 34.4839 30.1049 34.4858C30.1093 34.4876 30.114 34.4884 30.1188 34.4879H30.1266C28.9676 40.7477 28.608 48.3545 28.5136 53.7491C28.473 56.0778 28.4815 57.9945 28.4965 59.2129L28.43 59.3559" fill="white"/>
<path d="M30.119 34.4882C30.1143 34.4887 30.1095 34.488 30.1052 34.4861C30.1008 34.4842 30.097 34.4812 30.0941 34.4774C30.0883 34.4675 30.0831 34.4572 30.0786 34.4466C29.8934 34.0166 29.2293 30.4342 28.8945 28.5878C29.9023 28.7874 31.6286 28.7583 31.8994 28.8335C31.8994 28.835 31.9 28.835 31.9003 28.835C31.9774 28.8889 32.0605 28.9337 32.1479 28.9686C32.572 29.2483 33.3424 29.8749 33.9651 30.2329C33.8347 30.3896 33.6991 30.554 33.5605 30.7214C32.153 32.4142 30.4097 34.4496 30.1272 34.488H30.1194" fill="#EEEEEE"/>
<path d="M34.6584 30.4938C34.4902 30.4938 34.2569 30.397 33.9954 30.2496C33.9856 30.2433 33.9755 30.2377 33.9651 30.2326C33.3424 29.8747 32.5719 29.2479 32.1478 28.9684C32.315 29.0361 32.4938 29.0701 32.6741 29.0683C33.9566 29.0683 35.5094 27.5414 35.8921 26.7303C35.8955 26.7242 35.8989 26.7165 35.9021 26.7104C36.0516 26.7417 36.2032 26.7617 36.3556 26.7703C36.397 26.7734 36.4386 26.7734 36.481 26.7734C36.6531 26.7726 36.825 26.7576 36.9947 26.7288C37.0122 26.8175 37.0126 26.9087 36.996 26.9976C36.8207 27.8026 35.3361 30.4662 34.6751 30.4939H34.6585M31.8994 28.8334C31.6286 28.7581 29.9022 28.7873 28.8946 28.5876C28.5135 28.5124 28.2351 28.4048 28.1772 28.2451C27.9974 27.7505 28.7916 25.308 29.4886 24.2127C29.5845 24.0506 29.7039 23.9035 29.8429 23.7764C29.8905 23.738 29.942 23.698 29.9974 23.658C30.2249 23.4932 30.4737 23.3599 30.7369 23.2617C30.8282 23.3938 30.9282 23.5244 31.0359 23.6549L30.7422 24.6673C30.7422 24.6673 30.7375 24.7272 30.7307 24.8347C30.6962 25.5014 30.6562 27.9746 31.8991 28.8334" fill="white"/>
<path d="M32.6743 29.0686C32.494 29.0704 32.3151 29.0365 32.148 28.9687C32.0606 28.9338 31.9776 28.889 31.9004 28.8351C31.9004 28.8351 31.8998 28.8351 31.8995 28.8336C30.6566 27.9749 30.6962 25.5017 30.7311 24.8349C30.7375 24.7274 30.7426 24.6675 30.7426 24.6675C30.7426 24.6675 30.7379 24.7274 30.7311 24.8349C30.7612 24.8672 30.793 24.8963 30.8247 24.9271C32.0741 26.0936 33.7187 26.7439 35.428 26.7475C35.5828 26.7475 35.738 26.7429 35.8924 26.7306C35.5098 27.5417 33.9568 29.0686 32.6744 29.0686" fill="#FFB370"/>
<path d="M35.4278 26.7476C33.7185 26.744 32.0739 26.0937 30.8245 24.9272C30.7928 24.8964 30.761 24.8673 30.731 24.835C30.7373 24.7276 30.7425 24.6676 30.7425 24.6676L31.0362 23.6553C32.2626 25.1331 34.4755 26.4157 35.9025 26.7107C35.8993 26.7168 35.8959 26.7245 35.8925 26.7306C35.7381 26.743 35.5829 26.7476 35.428 26.7476" fill="#E7A061"/>
<path d="M41.6419 20.941C40.7698 20.2242 39.8354 19.5867 38.8499 19.0362C37.0011 17.9731 34.8184 17.4785 33.6958 17.2788C33.7855 16.9769 33.8503 16.6682 33.8894 16.3556C33.9691 16.3541 34.0488 16.3541 34.1295 16.3541C34.8807 16.353 35.6296 16.436 36.3624 16.6015C40.1085 17.4463 41.3012 19.0071 41.6519 19.68C41.6525 19.6877 41.6532 19.6938 41.6537 19.6999C41.6537 19.6938 41.6528 19.6876 41.6525 19.6815C41.687 19.7491 41.7137 19.8059 41.7331 19.8535C41.7113 20.196 41.6816 20.5632 41.6415 20.9411" fill="#EAA365"/>
<path d="M29.7298 21.9378C29.512 21.9278 29.3005 21.8611 29.1163 21.7443C28.8588 21.597 28.6317 21.402 28.4472 21.1697C28.3126 21.0005 28.2063 20.8107 28.1325 20.6075C28.1299 20.5998 28.1274 20.5922 28.1248 20.5859C28.0403 20.3476 28.0094 20.0935 28.0342 19.8418C28.0589 19.5901 28.1388 19.347 28.2681 19.1297C28.3945 18.9285 28.5687 18.7617 28.7752 18.6443C28.9818 18.5269 29.2142 18.4625 29.4517 18.4568C29.4897 18.4565 29.5277 18.4586 29.5655 18.4629C30.8774 18.5859 31.167 20.4261 30.584 21.3678C30.5637 21.4015 30.5424 21.4323 30.5201 21.463C30.4179 21.607 30.2882 21.7292 30.1384 21.8225C30.0479 21.8759 29.9484 21.9123 29.8448 21.93C29.8066 21.9349 29.7681 21.9374 29.7296 21.9377M30.2093 21.0099C30.0591 21.2296 29.8433 21.3962 29.5928 21.4861L29.6111 21.5368C29.8964 21.4266 30.1385 21.2273 30.3014 20.9685C30.4643 20.7097 30.5393 20.4053 30.5153 20.1004C30.5056 19.9575 30.475 19.8167 30.4245 19.6826C30.4052 19.6263 30.3822 19.5713 30.3554 19.5181C30.3472 19.5028 30.3378 19.4859 30.3267 19.4675C30.2266 19.2745 30.0751 19.1129 29.8889 19.0005C29.779 18.9366 29.6543 18.9027 29.5272 18.9022C29.3965 18.9037 29.2682 18.9374 29.1538 19.0005C28.991 19.0862 28.8601 19.2218 28.7801 19.3875C28.7002 19.5531 28.6755 19.74 28.7096 19.9207L28.763 19.9084C28.7315 19.7393 28.7549 19.5646 28.8298 19.4099C28.9047 19.2551 29.0271 19.1283 29.1792 19.0481C29.2751 18.9963 29.3808 18.9654 29.4895 18.9574C29.4449 18.9774 29.4054 19.0073 29.3743 19.045C29.0792 19.3921 29.1641 20.1617 29.2721 20.5597C29.3088 20.7234 29.3838 20.8761 29.491 21.0052C29.5384 21.0588 29.5961 21.1023 29.6608 21.133C29.7255 21.1636 29.7957 21.1808 29.8673 21.1835C29.8912 21.1838 29.9151 21.1818 29.9386 21.1774C30.0457 21.1546 30.1416 21.0955 30.2101 21.01" fill="#FFAF69"/>
<path d="M29.8671 21.1835C29.7958 21.1807 29.7258 21.1635 29.6613 21.1328C29.5968 21.1022 29.5392 21.0588 29.4919 21.0053C29.3847 20.8762 29.3097 20.7235 29.273 20.5598C29.165 20.1619 29.08 19.3923 29.3752 19.0451C29.4064 19.0074 29.4458 18.9775 29.4904 18.9575H29.5278C29.6455 18.9577 29.7611 18.9889 29.8628 19.0482C30.2283 19.2556 30.4407 19.7364 30.4619 20.1035C30.4814 20.4253 30.3929 20.7443 30.2104 21.0099C30.1419 21.0954 30.0459 21.1545 29.9388 21.1773C29.9153 21.1816 29.8914 21.1837 29.8675 21.1834M30.4256 19.6825C30.3979 19.6087 30.3651 19.5368 30.3275 19.4675C30.3391 19.4859 30.3482 19.5028 30.3562 19.5181C30.383 19.5713 30.4061 19.6262 30.4253 19.6825" fill="#FFA14E"/>
<path d="M29.6114 21.5369L29.5931 21.4862C29.8436 21.3963 30.0593 21.2297 30.2096 21.01C30.3921 20.7444 30.4807 20.4254 30.4611 20.1037C30.44 19.7365 30.2278 19.2557 29.862 19.0483C29.7603 18.9891 29.6448 18.9578 29.5271 18.9577H29.4896C29.381 18.9657 29.2752 18.9966 29.1794 19.0483C29.0273 19.1286 28.905 19.2554 28.8301 19.4102C28.7552 19.5649 28.7317 19.7396 28.7631 19.9086L28.7098 19.9209C28.6756 19.7402 28.7003 19.5533 28.7803 19.3877C28.8602 19.2221 28.9912 19.0864 29.1539 19.0007C29.2684 18.9377 29.3966 18.9039 29.5273 18.9025C29.6544 18.9029 29.7792 18.9368 29.8891 19.0007C30.0752 19.1131 30.2267 19.2747 30.3269 19.4677C30.3645 19.5371 30.3972 19.6089 30.4249 19.6828C30.4754 19.8169 30.5059 19.9577 30.5157 20.1007C30.5397 20.4055 30.4647 20.71 30.3018 20.9688C30.1389 21.2276 29.8968 21.4269 29.6115 21.537" fill="#EC898D"/>
<path d="M50.1381 36.2733C50.1076 36.2735 50.0771 36.2715 50.0469 36.2672L50.051 36.2334C50.0798 36.2377 50.1089 36.2398 50.138 36.2395C50.6016 36.2395 50.9923 35.7955 51.2961 35.4085L51.2353 35.5391C50.9405 35.9016 50.5729 36.2733 50.1381 36.2733ZM50.2157 34.0812L50.2041 34.0489C50.2202 34.0428 51.2564 33.6756 52.2288 33.4022L52.2099 33.4437C51.2479 33.7141 50.2314 34.0751 50.2154 34.0812" fill="#EC898D"/>
<path d="M39.391 52.0135L39.3646 52.001C39.3585 51.9936 38.8424 51.3587 38.3037 49.8926L38.3444 49.8049C38.8871 51.3045 39.4111 51.9496 39.4174 51.9571C39.4229 51.9639 39.4255 51.9726 39.4249 51.9814C39.4242 51.9901 39.4202 51.9983 39.4138 52.0042L39.4127 52.0051L39.3915 52.0129H39.391" fill="white"/>
</svg>
